# xmcd
#
# Track frame offsets: 
#        150
#        15486
#        31372
#        49261
#        72273
#        84370
#        99827
#        118227
#        136620
#        154325
#        173392
#        186771
#        201097
#        225708
#
# Disc length: 3137 seconds
#
# Revision: 0
# Processed by: cddbd v1.5.2PL0 Copyright (c) Steve Scherf et al.
# Submitted via: ExactAudioCopyFreeDBPlugin 1.0
#
DISCID=aa0c3f0e
DTITLE=Patricia Vonne - Patricia Vonne
DYEAR=2004
DGENRE=Country
TTITLE0=Won't Fade Away
TTITLE1=Shine A Light
TTITLE2=Dance In The Circle
TTITLE3=Soledad
TTITLE4=Mudpies and Gasoline
TTITLE5=Devotion
TTITLE6=Bandolera
TTITLE7=Can You Hear Me
TTITLE8=Morning After
TTITLE9=El Cruzado
TTITLE10=Severina
TTITLE11=Dead Eyes Shine
TTITLE12=Traema Paz
TTITLE13=Won't Fade Away (Video Bonus Track)
EXTD=
EXTT0=
EXTT1=
EXTT2=
EXTT3=
EXTT4=
EXTT5=
EXTT6=
EXTT7=
EXTT8=
EXTT9=
EXTT10=
EXTT11=
EXTT12=
EXTT13=
PLAYORDER=
